<region>
lovel=1
hivel=20
ampeg_release=1
sample=Db6_v20.aif
offset=0
lokey=84
hikey=84
pitch_keycenter=85
<region>
lovel=21
hivel=40
ampeg_release=1
sample=Db6_v40.aif
offset=0
lokey=84
hikey=84
pitch_keycenter=85
<region>
lovel=41
hivel=60
ampeg_release=1
sample=Db6_v60.aif
offset=0
lokey=84
hikey=84
pitch_keycenter=85
<region>
lovel=61
hivel=80
ampeg_release=1
sample=Db6_v80.aif
offset=0
lokey=84
hikey=84
pitch_keycenter=85
<region>
lovel=81
hivel=100
ampeg_release=1
sample=Db6_v100.aif
offset=0
lokey=84
hikey=84
pitch_keycenter=85
<region>
lovel=101
hivel=127
ampeg_release=1
sample=Db6_v127.aif
offset=0
lokey=84
hikey=84
pitch_keycenter=85
<region>
lovel=1
hivel=20
ampeg_release=1
sample=Bb5_v20.aif
offset=0
lokey=81
hikey=83
pitch_keycenter=82
<region>
lovel=21
hivel=40
ampeg_release=1
sample=Bb5_v40.aif
offset=0
lokey=81
hikey=83
pitch_keycenter=82
<region>
lovel=41
hivel=60
ampeg_release=1
sample=Bb5_v60.aif
offset=0
lokey=81
hikey=83
pitch_keycenter=82
<region>
lovel=61
hivel=80
ampeg_release=1
sample=Bb5_v80.aif
offset=0
lokey=81
hikey=83
pitch_keycenter=82
<region>
lovel=81
hivel=100
ampeg_release=1
sample=Bb5_v100.aif
offset=0
lokey=81
hikey=83
pitch_keycenter=82
<region>
lovel=101
hivel=127
ampeg_release=1
sample=Bb5_v127.aif
offset=0
lokey=81
hikey=83
pitch_keycenter=82
<region>
lovel=1
hivel=20
ampeg_release=1
sample=G5_v20.aif
offset=0
lokey=78
hikey=80
pitch_keycenter=79
<region>
lovel=21
hivel=40
ampeg_release=1
sample=G5_v40.aif
offset=0
lokey=78
hikey=80
pitch_keycenter=79
<region>
lovel=41
hivel=60
ampeg_release=1
sample=G5_v60.aif
offset=0
lokey=78
hikey=80
pitch_keycenter=79
<region>
lovel=61
hivel=80
ampeg_release=1
sample=G5_v80.aif
offset=0
lokey=78
hikey=80
pitch_keycenter=79
<region>
lovel=81
hivel=100
ampeg_release=1
sample=G5_v100.aif
offset=0
lokey=78
hikey=80
pitch_keycenter=79
<region>
lovel=101
hivel=127
ampeg_release=1
sample=G5_v127.aif
offset=0
lokey=78
hikey=80
pitch_keycenter=79
<region>
lovel=1
hivel=20
ampeg_release=1
sample=E5_v20.aif
offset=0
lokey=75
hikey=77
pitch_keycenter=76
<region>
lovel=21
hivel=40
ampeg_release=1
sample=E5_v40.aif
offset=0
lokey=75
hikey=77
pitch_keycenter=76
<region>
lovel=41
hivel=60
ampeg_release=1
sample=E5_v60.aif
offset=0
lokey=75
hikey=77
pitch_keycenter=76
<region>
lovel=61
hivel=80
ampeg_release=1
sample=E5_v80.aif
offset=0
lokey=75
hikey=77
pitch_keycenter=76
<region>
lovel=81
hivel=100
ampeg_release=1
sample=E5_v100.aif
offset=0
lokey=75
hikey=77
pitch_keycenter=76
<region>
lovel=101
hivel=127
ampeg_release=1
sample=E5_v127.aif
offset=0
lokey=75
hikey=77
pitch_keycenter=76
<region>
lovel=1
hivel=20
ampeg_release=1
sample=Db5_v20.aif
offset=0
lokey=72
hikey=74
pitch_keycenter=73
<region>
lovel=21
hivel=40
ampeg_release=1
sample=Db5_v40.aif
offset=0
lokey=72
hikey=74
pitch_keycenter=73
<region>
lovel=41
hivel=60
ampeg_release=1
sample=Db5_v60.aif
offset=0
lokey=72
hikey=74
pitch_keycenter=73
<region>
lovel=61
hivel=80
ampeg_release=1
sample=Db5_v80.aif
offset=0
lokey=72
hikey=74
pitch_keycenter=73
<region>
lovel=81
hivel=100
ampeg_release=1
sample=Db5_v100.aif
offset=0
lokey=72
hikey=74
pitch_keycenter=73
<region>
lovel=101
hivel=127
ampeg_release=1
sample=Db5_v127.aif
offset=0
lokey=72
hikey=74
pitch_keycenter=73
<region>
lovel=1
hivel=20
ampeg_release=1
sample=Bb4_v20.aif
offset=0
lokey=69
hikey=71
pitch_keycenter=70
<region>
lovel=21
hivel=40
ampeg_release=1
sample=Bb4_v40.aif
offset=0
lokey=69
hikey=71
pitch_keycenter=70
<region>
lovel=41
hivel=60
ampeg_release=1
sample=Bb4_v60.aif
offset=0
lokey=69
hikey=71
pitch_keycenter=70
<region>
lovel=61
hivel=80
ampeg_release=1
sample=Bb4_v80.aif
offset=0
lokey=69
hikey=71
pitch_keycenter=70
<region>
lovel=81
hivel=100
ampeg_release=1
sample=Bb4_v100.aif
offset=0
lokey=69
hikey=71
pitch_keycenter=70
<region>
lovel=101
hivel=127
ampeg_release=1
sample=Bb4_v127.aif
offset=0
lokey=69
hikey=71
pitch_keycenter=70
<region>
lovel=1
hivel=20
ampeg_release=1
sample=G4_v20.aif
offset=0
lokey=66
hikey=68
pitch_keycenter=67
<region>
lovel=21
hivel=40
ampeg_release=1
sample=G4_v40.aif
offset=0
lokey=66
hikey=68
pitch_keycenter=67
<region>
lovel=41
hivel=60
ampeg_release=1
sample=G4_v60.aif
offset=0
lokey=66
hikey=68
pitch_keycenter=67
<region>
lovel=61
hivel=80
ampeg_release=1
sample=G4_v80.aif
offset=0
lokey=66
hikey=68
pitch_keycenter=67
<region>
lovel=81
hivel=100
ampeg_release=1
sample=G4_v100.aif
offset=0
lokey=66
hikey=68
pitch_keycenter=67
<region>
lovel=101
hivel=127
ampeg_release=1
sample=G4_v127.aif
offset=0
lokey=66
hikey=68
pitch_keycenter=67
<region>
lovel=1
hivel=20
ampeg_release=1
sample=E4_v20.aif
offset=0
lokey=63
hikey=65
pitch_keycenter=64
<region>
lovel=21
hivel=40
ampeg_release=1
sample=E4_v40.aif
offset=0
lokey=63
hikey=65
pitch_keycenter=64
<region>
lovel=41
hivel=60
ampeg_release=1
sample=E4_v60.aif
offset=0
lokey=63
hikey=65
pitch_keycenter=64
<region>
lovel=61
hivel=80
ampeg_release=1
sample=E4_v80.aif
offset=0
lokey=63
hikey=65
pitch_keycenter=64
<region>
lovel=81
hivel=100
ampeg_release=1
sample=E4_v100.aif
offset=0
lokey=63
hikey=65
pitch_keycenter=64
<region>
lovel=101
hivel=127
ampeg_release=1
sample=E4_v127.aif
offset=0
lokey=63
hikey=65
pitch_keycenter=64
<region>
lovel=1
hivel=20
ampeg_release=1
sample=Db4_v20.aif
offset=0
lokey=60
hikey=62
pitch_keycenter=61
<region>
lovel=21
hivel=40
ampeg_release=1
sample=Db4_v40.aif
offset=0
lokey=60
hikey=62
pitch_keycenter=61
<region>
lovel=41
hivel=60
ampeg_release=1
sample=Db4_v60.aif
offset=0
lokey=60
hikey=62
pitch_keycenter=61
<region>
lovel=61
hivel=80
ampeg_release=1
sample=Db4_v80.aif
offset=0
lokey=60
hikey=62
pitch_keycenter=61
<region>
lovel=81
hivel=100
ampeg_release=1
sample=Db4_v100.aif
offset=0
lokey=60
hikey=62
pitch_keycenter=61
<region>
lovel=101
hivel=127
ampeg_release=1
sample=Db4_v127.aif
offset=0
lokey=60
hikey=62
pitch_keycenter=61
<region>
lovel=1
hivel=20
ampeg_release=1
sample=Bb3_v20.aif
offset=0
lokey=57
hikey=59
pitch_keycenter=58
<region>
lovel=21
hivel=40
ampeg_release=1
sample=Bb3_v40.aif
offset=0
lokey=57
hikey=59
pitch_keycenter=58
<region>
lovel=41
hivel=60
ampeg_release=1
sample=Bb3_v60.aif
offset=0
lokey=57
hikey=59
pitch_keycenter=58
<region>
lovel=61
hivel=80
ampeg_release=1
sample=Bb3_v80.aif
offset=0
lokey=57
hikey=59
pitch_keycenter=58
<region>
lovel=81
hivel=100
ampeg_release=1
sample=Bb3_v100.aif
offset=0
lokey=57
hikey=59
pitch_keycenter=58
<region>
lovel=101
hivel=127
ampeg_release=1
sample=Bb3_v127.aif
offset=0
lokey=57
hikey=59
pitch_keycenter=58
<region>
lovel=1
hivel=20
ampeg_release=1
sample=G3_v20.aif
offset=0
lokey=54
hikey=56
pitch_keycenter=55
<region>
lovel=21
hivel=40
ampeg_release=1
sample=G3_v40.aif
offset=0
lokey=54
hikey=56
pitch_keycenter=55
<region>
lovel=41
hivel=60
ampeg_release=1
sample=G3_v60.aif
offset=0
lokey=54
hikey=56
pitch_keycenter=55
<region>
lovel=61
hivel=80
ampeg_release=1
sample=G3_v80.aif
offset=0
lokey=54
hikey=56
pitch_keycenter=55
<region>
lovel=81
hivel=100
ampeg_release=1
sample=G3_v100.aif
offset=0
lokey=54
hikey=56
pitch_keycenter=55
<region>
lovel=101
hivel=127
ampeg_release=1
sample=G3_v127.aif
offset=0
lokey=54
hikey=56
pitch_keycenter=55
<region>
lovel=1
hivel=20
ampeg_release=1
sample=E3_v20.aif
offset=0
lokey=51
hikey=53
pitch_keycenter=52
<region>
lovel=21
hivel=40
ampeg_release=1
sample=E3_v40.aif
offset=0
lokey=51
hikey=53
pitch_keycenter=52
<region>
lovel=41
hivel=60
ampeg_release=1
sample=E3_v60.aif
offset=0
lokey=51
hikey=53
pitch_keycenter=52
<region>
lovel=61
hivel=80
ampeg_release=1
sample=E3_v80.aif
offset=0
lokey=51
hikey=53
pitch_keycenter=52
<region>
lovel=81
hivel=100
ampeg_release=1
sample=E3_v100.aif
offset=0
lokey=51
hikey=53
pitch_keycenter=52
<region>
lovel=101
hivel=127
ampeg_release=1
sample=E3_v127.aif
offset=0
lokey=51
hikey=53
pitch_keycenter=52
<region>
lovel=1
hivel=20
ampeg_release=1
sample=Db3_v20.aif
offset=0
lokey=48
hikey=50
pitch_keycenter=49
<region>
lovel=21
hivel=40
ampeg_release=1
sample=Db3_v40.aif
offset=0
lokey=48
hikey=50
pitch_keycenter=49
<region>
lovel=41
hivel=60
ampeg_release=1
sample=Db3_v60.aif
offset=0
lokey=48
hikey=50
pitch_keycenter=49
<region>
lovel=61
hivel=80
ampeg_release=1
sample=Db3_v80.aif
offset=0
lokey=48
hikey=50
pitch_keycenter=49
<region>
lovel=81
hivel=100
ampeg_release=1
sample=Db3_v100.aif
offset=0
lokey=48
hikey=50
pitch_keycenter=49
<region>
lovel=101
hivel=127
ampeg_release=1
sample=Db3_v127.aif
offset=0
lokey=48
hikey=50
pitch_keycenter=49
<region>
lovel=1
hivel=20
ampeg_release=1
sample=Bb2_v20.aif
offset=0
lokey=45
hikey=47
pitch_keycenter=46
<region>
lovel=21
hivel=40
ampeg_release=1
sample=Bb2_v40.aif
offset=0
lokey=45
hikey=47
pitch_keycenter=46
<region>
lovel=41
hivel=60
ampeg_release=1
sample=Bb2_v60.aif
offset=0
lokey=45
hikey=47
pitch_keycenter=46
<region>
lovel=61
hivel=80
ampeg_release=1
sample=Bb2_v80.aif
offset=0
lokey=45
hikey=47
pitch_keycenter=46
<region>
lovel=81
hivel=100
ampeg_release=1
sample=Bb2_v100.aif
offset=0
lokey=45
hikey=47
pitch_keycenter=46
<region>
lovel=101
hivel=127
ampeg_release=1
sample=Bb2_v127.aif
offset=0
lokey=45
hikey=47
pitch_keycenter=46
<region>
lovel=1
hivel=20
ampeg_release=1
sample=G2_v20.aif
offset=0
lokey=42
hikey=44
pitch_keycenter=43
<region>
lovel=21
hivel=40
ampeg_release=1
sample=G2_v40.aif
offset=0
lokey=42
hikey=44
pitch_keycenter=43
<region>
lovel=41
hivel=60
ampeg_release=1
sample=G2_v60.aif
offset=0
lokey=42
hikey=44
pitch_keycenter=43
<region>
lovel=61
hivel=80
ampeg_release=1
sample=G2_v80.aif
offset=0
lokey=42
hikey=44
pitch_keycenter=43
<region>
lovel=81
hivel=100
ampeg_release=1
sample=G2_v100.aif
offset=0
lokey=42
hikey=44
pitch_keycenter=43
<region>
lovel=101
hivel=127
ampeg_release=1
sample=G2_v127.aif
offset=0
lokey=42
hikey=44
pitch_keycenter=43
<region>
lovel=1
hivel=20
ampeg_release=1
sample=E2_v20.aif
offset=0
lokey=39
hikey=41
pitch_keycenter=40
<region>
lovel=21
hivel=40
ampeg_release=1
sample=E2_v40.aif
offset=0
lokey=39
hikey=41
pitch_keycenter=40
<region>
lovel=41
hivel=60
ampeg_release=1
sample=E2_v60.aif
offset=0
lokey=39
hikey=41
pitch_keycenter=40
<region>
lovel=61
hivel=80
ampeg_release=1
sample=E2_v80.aif
offset=0
lokey=39
hikey=41
pitch_keycenter=40
<region>
lovel=81
hivel=100
ampeg_release=1
sample=E2_v100.aif
offset=0
lokey=39
hikey=41
pitch_keycenter=40
<region>
lovel=101
hivel=127
ampeg_release=1
sample=E2_v127.aif
offset=0
lokey=39
hikey=41
pitch_keycenter=40
<region>
lovel=1
hivel=20
ampeg_release=1
sample=Db2_v20.aif
offset=0
lokey=36
hikey=38
pitch_keycenter=37
<region>
lovel=21
hivel=40
ampeg_release=1
sample=Db2_v40.aif
offset=0
lokey=36
hikey=38
pitch_keycenter=37
<region>
lovel=41
hivel=60
ampeg_release=1
sample=Db2_v60.aif
offset=0
lokey=36
hikey=38
pitch_keycenter=37
<region>
lovel=61
hivel=80
ampeg_release=1
sample=Db2_v80.aif
offset=0
lokey=36
hikey=38
pitch_keycenter=37
<region>
lovel=81
hivel=100
ampeg_release=1
sample=Db2_v100.aif
offset=0
lokey=36
hikey=38
pitch_keycenter=37
<region>
lovel=101
hivel=127
ampeg_release=1
sample=Db2_v127.aif
offset=0
lokey=36
hikey=38
pitch_keycenter=37